<mxfile host="app.diagrams.net" agent="Mozilla/5.0 (Windows NT 10.0; Win64; x64) AppleWebKit/537.36 (KHTML, like Gecko) Chrome/134.0.0.0 Safari/537.36 Edg/134.0.0.0" version="26.2.3">
  <diagram name="第 1 页" id="n6e04V7jjncT3Dm4Qbx1">
    <mxGraphModel dx="1427" dy="1896" grid="1" gridSize="10" guides="1" tooltips="1" connect="1" arrows="1" fold="1" page="1" pageScale="1" pageWidth="827" pageHeight="1169" math="0" shadow="0">
      <root>
        <mxCell id="0" />
        <mxCell id="1" parent="0" />
        <mxCell id="FQrFjegRPgmL6ipm70EM-15" value="" style="edgeStyle=orthogonalEdgeStyle;rounded=0;orthogonalLoop=1;jettySize=auto;html=1;" parent="1" source="H_5QPLYrO2WsYd4f-BC5-1" target="FQrFjegRPgmL6ipm70EM-16" edge="1">
          <mxGeometry relative="1" as="geometry">
            <mxPoint x="364.87" y="-1010" as="targetPoint" />
          </mxGeometry>
        </mxCell>
        <mxCell id="H_5QPLYrO2WsYd4f-BC5-1" value="开始" style="rounded=0;whiteSpace=wrap;html=1;" parent="1" vertex="1">
          <mxGeometry x="309.87" y="-1090" width="110" height="40" as="geometry" />
        </mxCell>
        <mxCell id="H_5QPLYrO2WsYd4f-BC5-11" value="" style="edgeStyle=orthogonalEdgeStyle;rounded=0;orthogonalLoop=1;jettySize=auto;html=1;" parent="1" source="H_5QPLYrO2WsYd4f-BC5-8" target="H_5QPLYrO2WsYd4f-BC5-10" edge="1">
          <mxGeometry relative="1" as="geometry" />
        </mxCell>
        <mxCell id="H_5QPLYrO2WsYd4f-BC5-14" value="" style="edgeStyle=orthogonalEdgeStyle;rounded=0;orthogonalLoop=1;jettySize=auto;html=1;" parent="1" source="H_5QPLYrO2WsYd4f-BC5-8" target="H_5QPLYrO2WsYd4f-BC5-13" edge="1">
          <mxGeometry relative="1" as="geometry" />
        </mxCell>
        <mxCell id="H_5QPLYrO2WsYd4f-BC5-8" value="&lt;font style=&quot;font-size: 6px;&quot;&gt;上个超级帧组帧后，最后的音频帧有剩余&lt;/font&gt;" style="rhombus;whiteSpace=wrap;html=1;rounded=0;" parent="1" vertex="1">
          <mxGeometry x="279.87" y="-970" width="170" height="40" as="geometry" />
        </mxCell>
        <mxCell id="H_5QPLYrO2WsYd4f-BC5-16" value="" style="edgeStyle=orthogonalEdgeStyle;rounded=0;orthogonalLoop=1;jettySize=auto;html=1;" parent="1" source="H_5QPLYrO2WsYd4f-BC5-10" target="H_5QPLYrO2WsYd4f-BC5-15" edge="1">
          <mxGeometry relative="1" as="geometry" />
        </mxCell>
        <mxCell id="H_5QPLYrO2WsYd4f-BC5-10" value="&lt;font style=&quot;font-size: 6px;&quot;&gt;将剩余部分放入新的超级帧中&lt;/font&gt;" style="whiteSpace=wrap;html=1;rounded=0;" parent="1" vertex="1">
          <mxGeometry x="509.87" y="-962.5" width="80" height="25" as="geometry" />
        </mxCell>
        <mxCell id="H_5QPLYrO2WsYd4f-BC5-12" value="YES" style="text;html=1;align=center;verticalAlign=middle;resizable=0;points=[];autosize=1;strokeColor=none;fillColor=none;" parent="1" vertex="1">
          <mxGeometry x="449.87" y="-980" width="50" height="30" as="geometry" />
        </mxCell>
        <mxCell id="H_5QPLYrO2WsYd4f-BC5-21" value="" style="edgeStyle=orthogonalEdgeStyle;rounded=0;orthogonalLoop=1;jettySize=auto;html=1;" parent="1" source="H_5QPLYrO2WsYd4f-BC5-13" target="H_5QPLYrO2WsYd4f-BC5-20" edge="1">
          <mxGeometry relative="1" as="geometry" />
        </mxCell>
        <mxCell id="H_5QPLYrO2WsYd4f-BC5-13" value="&lt;font style=&quot;font-size: 6px;&quot;&gt;音频帧添加16校验位&lt;/font&gt;" style="rounded=0;whiteSpace=wrap;html=1;" parent="1" vertex="1">
          <mxGeometry x="304.87" y="-900" width="120" height="30" as="geometry" />
        </mxCell>
        <mxCell id="H_5QPLYrO2WsYd4f-BC5-17" value="" style="edgeStyle=orthogonalEdgeStyle;rounded=0;orthogonalLoop=1;jettySize=auto;html=1;" parent="1" source="H_5QPLYrO2WsYd4f-BC5-15" edge="1">
          <mxGeometry relative="1" as="geometry">
            <mxPoint x="549.87" y="-880.25" as="sourcePoint" />
            <mxPoint x="424.87" y="-880.25" as="targetPoint" />
            <Array as="points" />
          </mxGeometry>
        </mxCell>
        <mxCell id="FQrFjegRPgmL6ipm70EM-2" value="" style="edgeStyle=orthogonalEdgeStyle;rounded=0;orthogonalLoop=1;jettySize=auto;html=1;" parent="1" source="H_5QPLYrO2WsYd4f-BC5-20" target="FQrFjegRPgmL6ipm70EM-1" edge="1">
          <mxGeometry relative="1" as="geometry" />
        </mxCell>
        <mxCell id="FQrFjegRPgmL6ipm70EM-5" value="" style="edgeStyle=orthogonalEdgeStyle;rounded=0;orthogonalLoop=1;jettySize=auto;html=1;" parent="1" source="H_5QPLYrO2WsYd4f-BC5-20" target="FQrFjegRPgmL6ipm70EM-4" edge="1">
          <mxGeometry relative="1" as="geometry" />
        </mxCell>
        <mxCell id="H_5QPLYrO2WsYd4f-BC5-20" value="&lt;font style=&quot;font-size: 6px;&quot;&gt;正常添加该音频帧后空间不足&lt;/font&gt;" style="rhombus;whiteSpace=wrap;html=1;rounded=0;" parent="1" vertex="1">
          <mxGeometry x="289.87" y="-850" width="150" height="40" as="geometry" />
        </mxCell>
        <mxCell id="H_5QPLYrO2WsYd4f-BC5-23" value="" style="edgeStyle=orthogonalEdgeStyle;rounded=0;orthogonalLoop=1;jettySize=auto;html=1;" parent="1" target="H_5QPLYrO2WsYd4f-BC5-15" edge="1">
          <mxGeometry relative="1" as="geometry">
            <mxPoint x="549.87" y="-880.25" as="sourcePoint" />
            <mxPoint x="424.87" y="-880.25" as="targetPoint" />
            <Array as="points" />
          </mxGeometry>
        </mxCell>
        <mxCell id="H_5QPLYrO2WsYd4f-BC5-15" value="" style="shape=waypoint;sketch=0;size=6;pointerEvents=1;points=[];fillColor=default;resizable=0;rotatable=0;perimeter=centerPerimeter;snapToPoint=1;rounded=0;" parent="1" vertex="1">
          <mxGeometry x="539.87" y="-890" width="20" height="20" as="geometry" />
        </mxCell>
        <mxCell id="FQrFjegRPgmL6ipm70EM-1" value="&lt;div&gt;&lt;span style=&quot;font-size: 6px; background-color: transparent; color: light-dark(rgb(0, 0, 0), rgb(255, 255, 255));&quot;&gt;记录帧边界索引frame_borders&lt;/span&gt;&lt;/div&gt;&lt;div&gt;&lt;span style=&quot;font-size: 6px; background-color: transparent; color: light-dark(rgb(0, 0, 0), rgb(255, 255, 255));&quot;&gt;将该音频帧与校验位添加到payload&lt;/span&gt;&lt;/div&gt;" style="rounded=0;whiteSpace=wrap;html=1;" parent="1" vertex="1">
          <mxGeometry x="304.87" y="-782" width="120" height="32" as="geometry" />
        </mxCell>
        <mxCell id="FQrFjegRPgmL6ipm70EM-3" value="NO" style="text;html=1;align=center;verticalAlign=middle;resizable=0;points=[];autosize=1;strokeColor=none;fillColor=none;" parent="1" vertex="1">
          <mxGeometry x="359.87" y="-812" width="40" height="30" as="geometry" />
        </mxCell>
        <mxCell id="FQrFjegRPgmL6ipm70EM-9" value="" style="edgeStyle=orthogonalEdgeStyle;rounded=0;orthogonalLoop=1;jettySize=auto;html=1;" parent="1" source="FQrFjegRPgmL6ipm70EM-4" target="FQrFjegRPgmL6ipm70EM-8" edge="1">
          <mxGeometry relative="1" as="geometry" />
        </mxCell>
        <mxCell id="FQrFjegRPgmL6ipm70EM-4" value="&lt;font style=&quot;font-size: 6px;&quot;&gt;记录帧边界索引&lt;/font&gt;&lt;span style=&quot;font-size: 6px;&quot;&gt;frame_borders&lt;/span&gt;" style="whiteSpace=wrap;html=1;rounded=0;" parent="1" vertex="1">
          <mxGeometry x="479.87" y="-841.25" width="90" height="22.5" as="geometry" />
        </mxCell>
        <mxCell id="FQrFjegRPgmL6ipm70EM-26" value="" style="edgeStyle=orthogonalEdgeStyle;rounded=0;orthogonalLoop=1;jettySize=auto;html=1;" parent="1" source="FQrFjegRPgmL6ipm70EM-8" target="FQrFjegRPgmL6ipm70EM-25" edge="1">
          <mxGeometry relative="1" as="geometry" />
        </mxCell>
        <mxCell id="FQrFjegRPgmL6ipm70EM-28" value="" style="edgeStyle=orthogonalEdgeStyle;rounded=0;orthogonalLoop=1;jettySize=auto;html=1;" parent="1" source="FQrFjegRPgmL6ipm70EM-8" target="FQrFjegRPgmL6ipm70EM-27" edge="1">
          <mxGeometry relative="1" as="geometry" />
        </mxCell>
        <mxCell id="FQrFjegRPgmL6ipm70EM-8" value="&lt;font style=&quot;font-size: 6px;&quot;&gt;可用空间小于3字节&lt;/font&gt;" style="rhombus;whiteSpace=wrap;html=1;rounded=0;" parent="1" vertex="1">
          <mxGeometry x="467.37" y="-800" width="115" height="37.5" as="geometry" />
        </mxCell>
        <mxCell id="FQrFjegRPgmL6ipm70EM-10" value="YES" style="text;html=1;align=center;verticalAlign=middle;resizable=0;points=[];autosize=1;strokeColor=none;fillColor=none;" parent="1" vertex="1">
          <mxGeometry x="429.87" y="-850" width="50" height="30" as="geometry" />
        </mxCell>
        <mxCell id="FQrFjegRPgmL6ipm70EM-16" value="&lt;font style=&quot;font-size: 8px;&quot;&gt;读取音频帧&lt;/font&gt;" style="rounded=0;whiteSpace=wrap;html=1;" parent="1" vertex="1">
          <mxGeometry x="304.87" y="-1030" width="120" height="30" as="geometry" />
        </mxCell>
        <mxCell id="FQrFjegRPgmL6ipm70EM-19" value="" style="endArrow=classic;html=1;rounded=0;exitX=0.5;exitY=1;exitDx=0;exitDy=0;entryX=0.5;entryY=0;entryDx=0;entryDy=0;" parent="1" source="FQrFjegRPgmL6ipm70EM-16" target="H_5QPLYrO2WsYd4f-BC5-8" edge="1">
          <mxGeometry width="50" height="50" relative="1" as="geometry">
            <mxPoint x="359.87" y="-950" as="sourcePoint" />
            <mxPoint x="409.87" y="-1000" as="targetPoint" />
          </mxGeometry>
        </mxCell>
        <mxCell id="FQrFjegRPgmL6ipm70EM-22" value="" style="endArrow=none;html=1;rounded=0;" parent="1" edge="1">
          <mxGeometry width="50" height="50" relative="1" as="geometry">
            <mxPoint x="189.87" y="-760" as="sourcePoint" />
            <mxPoint x="189.87" y="-1020" as="targetPoint" />
          </mxGeometry>
        </mxCell>
        <mxCell id="FQrFjegRPgmL6ipm70EM-23" value="" style="endArrow=classic;html=1;rounded=0;entryX=0;entryY=0.333;entryDx=0;entryDy=0;entryPerimeter=0;" parent="1" target="FQrFjegRPgmL6ipm70EM-16" edge="1">
          <mxGeometry width="50" height="50" relative="1" as="geometry">
            <mxPoint x="189.87" y="-1020" as="sourcePoint" />
            <mxPoint x="409.87" y="-920" as="targetPoint" />
          </mxGeometry>
        </mxCell>
        <mxCell id="FQrFjegRPgmL6ipm70EM-24" value="" style="endArrow=none;html=1;rounded=0;exitX=0;exitY=0.669;exitDx=0;exitDy=0;exitPerimeter=0;" parent="1" source="FQrFjegRPgmL6ipm70EM-1" edge="1">
          <mxGeometry width="50" height="50" relative="1" as="geometry">
            <mxPoint x="304.8700000000001" y="-762.172" as="sourcePoint" />
            <mxPoint x="189.87" y="-760" as="targetPoint" />
          </mxGeometry>
        </mxCell>
        <mxCell id="FQrFjegRPgmL6ipm70EM-31" value="" style="edgeStyle=orthogonalEdgeStyle;rounded=0;orthogonalLoop=1;jettySize=auto;html=1;" parent="1" source="FQrFjegRPgmL6ipm70EM-25" target="FQrFjegRPgmL6ipm70EM-29" edge="1">
          <mxGeometry relative="1" as="geometry">
            <Array as="points">
              <mxPoint x="524.87" y="-710" />
              <mxPoint x="599.87" y="-710" />
            </Array>
          </mxGeometry>
        </mxCell>
        <mxCell id="FQrFjegRPgmL6ipm70EM-25" value="&lt;font style=&quot;font-size: 8px;&quot;&gt;正常填充&lt;/font&gt;" style="whiteSpace=wrap;html=1;rounded=0;" parent="1" vertex="1">
          <mxGeometry x="489.87" y="-750" width="70" height="30" as="geometry" />
        </mxCell>
        <mxCell id="FQrFjegRPgmL6ipm70EM-30" value="" style="edgeStyle=orthogonalEdgeStyle;rounded=0;orthogonalLoop=1;jettySize=auto;html=1;" parent="1" source="FQrFjegRPgmL6ipm70EM-27" target="FQrFjegRPgmL6ipm70EM-29" edge="1">
          <mxGeometry relative="1" as="geometry">
            <Array as="points">
              <mxPoint x="649.87" y="-710" />
              <mxPoint x="599.87" y="-710" />
            </Array>
          </mxGeometry>
        </mxCell>
        <mxCell id="FQrFjegRPgmL6ipm70EM-27" value="&lt;font style=&quot;font-size: 8px;&quot;&gt;特殊填充&lt;/font&gt;" style="whiteSpace=wrap;html=1;rounded=0;" parent="1" vertex="1">
          <mxGeometry x="609.87" y="-796.25" width="80" height="30" as="geometry" />
        </mxCell>
        <mxCell id="FQrFjegRPgmL6ipm70EM-37" value="" style="edgeStyle=orthogonalEdgeStyle;rounded=0;orthogonalLoop=1;jettySize=auto;html=1;" parent="1" source="FQrFjegRPgmL6ipm70EM-29" target="FQrFjegRPgmL6ipm70EM-36" edge="1">
          <mxGeometry relative="1" as="geometry" />
        </mxCell>
        <mxCell id="FQrFjegRPgmL6ipm70EM-41" value="" style="edgeStyle=orthogonalEdgeStyle;rounded=0;orthogonalLoop=1;jettySize=auto;html=1;" parent="1" source="FQrFjegRPgmL6ipm70EM-29" target="FQrFjegRPgmL6ipm70EM-40" edge="1">
          <mxGeometry relative="1" as="geometry" />
        </mxCell>
        <mxCell id="FQrFjegRPgmL6ipm70EM-29" value="&lt;font style=&quot;font-size: 6px;&quot;&gt;上个超级帧是否发生特殊填充&lt;/font&gt;" style="rhombus;whiteSpace=wrap;html=1;rounded=0;" parent="1" vertex="1">
          <mxGeometry x="549.87" y="-670" width="100" height="40" as="geometry" />
        </mxCell>
        <mxCell id="FQrFjegRPgmL6ipm70EM-42" style="edgeStyle=orthogonalEdgeStyle;rounded=0;orthogonalLoop=1;jettySize=auto;html=1;" parent="1" source="FQrFjegRPgmL6ipm70EM-36" edge="1">
          <mxGeometry relative="1" as="geometry">
            <mxPoint x="519.87" y="-650" as="targetPoint" />
          </mxGeometry>
        </mxCell>
        <mxCell id="FQrFjegRPgmL6ipm70EM-36" value="&lt;span style=&quot;font-size: 6px;&quot;&gt;边界索引加一，用于描述上个超级帧最后的音频帧边界&lt;/span&gt;" style="whiteSpace=wrap;html=1;rounded=0;" parent="1" vertex="1">
          <mxGeometry x="544.87" y="-610" width="110" height="40" as="geometry" />
        </mxCell>
        <mxCell id="FQrFjegRPgmL6ipm70EM-38" value="&lt;font style=&quot;font-size: 6px;&quot;&gt;边界索引减一，不必再描述本次超级帧中最后一个音频帧的边界&lt;/font&gt;" style="whiteSpace=wrap;html=1;rounded=0;" parent="1" vertex="1">
          <mxGeometry x="383.62" y="-610" width="92.5" height="40" as="geometry" />
        </mxCell>
        <mxCell id="FQrFjegRPgmL6ipm70EM-43" value="" style="edgeStyle=orthogonalEdgeStyle;rounded=0;orthogonalLoop=1;jettySize=auto;html=1;" parent="1" source="FQrFjegRPgmL6ipm70EM-40" target="FQrFjegRPgmL6ipm70EM-38" edge="1">
          <mxGeometry relative="1" as="geometry" />
        </mxCell>
        <mxCell id="FQrFjegRPgmL6ipm70EM-47" value="" style="edgeStyle=orthogonalEdgeStyle;rounded=0;orthogonalLoop=1;jettySize=auto;html=1;" parent="1" source="FQrFjegRPgmL6ipm70EM-40" target="FQrFjegRPgmL6ipm70EM-46" edge="1">
          <mxGeometry relative="1" as="geometry" />
        </mxCell>
        <mxCell id="FQrFjegRPgmL6ipm70EM-40" value="&lt;span style=&quot;font-size: 6px;&quot;&gt;本次超级帧是否发生特殊填充&lt;/span&gt;" style="rhombus;whiteSpace=wrap;html=1;rounded=0;" parent="1" vertex="1">
          <mxGeometry x="379.87" y="-670" width="100" height="40" as="geometry" />
        </mxCell>
        <mxCell id="FQrFjegRPgmL6ipm70EM-44" value="YES" style="text;html=1;align=center;verticalAlign=middle;resizable=0;points=[];autosize=1;strokeColor=none;fillColor=none;" parent="1" vertex="1">
          <mxGeometry x="589.87" y="-640" width="50" height="30" as="geometry" />
        </mxCell>
        <mxCell id="FQrFjegRPgmL6ipm70EM-45" value="YES" style="text;html=1;align=center;verticalAlign=middle;resizable=0;points=[];autosize=1;strokeColor=none;fillColor=none;" parent="1" vertex="1">
          <mxGeometry x="424.87" y="-640" width="50" height="30" as="geometry" />
        </mxCell>
        <mxCell id="FQrFjegRPgmL6ipm70EM-49" value="" style="edgeStyle=orthogonalEdgeStyle;rounded=0;orthogonalLoop=1;jettySize=auto;html=1;" parent="1" source="FQrFjegRPgmL6ipm70EM-46" target="FQrFjegRPgmL6ipm70EM-48" edge="1">
          <mxGeometry relative="1" as="geometry" />
        </mxCell>
        <mxCell id="FQrFjegRPgmL6ipm70EM-46" value="&lt;font style=&quot;font-size: 8px;&quot;&gt;写入header&amp;nbsp;&lt;/font&gt;" style="whiteSpace=wrap;html=1;rounded=0;" parent="1" vertex="1">
          <mxGeometry x="259.87" y="-666.25" width="80" height="32.5" as="geometry" />
        </mxCell>
        <mxCell id="FQrFjegRPgmL6ipm70EM-51" value="" style="edgeStyle=orthogonalEdgeStyle;rounded=0;orthogonalLoop=1;jettySize=auto;html=1;" parent="1" source="FQrFjegRPgmL6ipm70EM-48" target="FQrFjegRPgmL6ipm70EM-50" edge="1">
          <mxGeometry relative="1" as="geometry" />
        </mxCell>
        <mxCell id="FQrFjegRPgmL6ipm70EM-48" value="&lt;font style=&quot;font-size: 8px;&quot;&gt;写入payload&lt;/font&gt;" style="whiteSpace=wrap;html=1;rounded=0;" parent="1" vertex="1">
          <mxGeometry x="139.87" y="-670" width="90" height="40" as="geometry" />
        </mxCell>
        <mxCell id="FQrFjegRPgmL6ipm70EM-53" value="" style="edgeStyle=orthogonalEdgeStyle;rounded=0;orthogonalLoop=1;jettySize=auto;html=1;" parent="1" source="FQrFjegRPgmL6ipm70EM-50" edge="1">
          <mxGeometry relative="1" as="geometry">
            <mxPoint x="184.87" y="-530" as="targetPoint" />
          </mxGeometry>
        </mxCell>
        <mxCell id="FQrFjegRPgmL6ipm70EM-50" value="&lt;font style=&quot;font-size: 8px;&quot;&gt;依次写入directory&lt;/font&gt;" style="whiteSpace=wrap;html=1;rounded=0;" parent="1" vertex="1">
          <mxGeometry x="138" y="-600" width="93.75" height="40" as="geometry" />
        </mxCell>
        <mxCell id="FQrFjegRPgmL6ipm70EM-55" value="" style="edgeStyle=orthogonalEdgeStyle;rounded=0;orthogonalLoop=1;jettySize=auto;html=1;" parent="1" target="FQrFjegRPgmL6ipm70EM-54" edge="1">
          <mxGeometry relative="1" as="geometry">
            <mxPoint x="274.87" y="-495" as="sourcePoint" />
          </mxGeometry>
        </mxCell>
        <mxCell id="FQrFjegRPgmL6ipm70EM-52" value="&lt;font style=&quot;font-size: 6px;&quot;&gt;写入第一个&lt;span style=&quot;font-size: 8px;&quot;&gt;directory&lt;/span&gt;时，上个音频帧发生特殊填充&lt;/font&gt;" style="rhombus;whiteSpace=wrap;html=1;rounded=0;" parent="1" vertex="1">
          <mxGeometry x="5" y="530" width="180" height="70" as="geometry" />
        </mxCell>
        <mxCell id="FQrFjegRPgmL6ipm70EM-66" value="" style="edgeStyle=orthogonalEdgeStyle;rounded=0;orthogonalLoop=1;jettySize=auto;html=1;" parent="1" source="FQrFjegRPgmL6ipm70EM-54" target="FQrFjegRPgmL6ipm70EM-65" edge="1">
          <mxGeometry relative="1" as="geometry" />
        </mxCell>
        <mxCell id="FQrFjegRPgmL6ipm70EM-54" value="&lt;font style=&quot;font-size: 6px;&quot;&gt;依据填充字节数进行分类处理&lt;/font&gt;" style="whiteSpace=wrap;html=1;rounded=0;" parent="1" vertex="1">
          <mxGeometry x="319.87" y="-517.5" width="80" height="45" as="geometry" />
        </mxCell>
        <mxCell id="FQrFjegRPgmL6ipm70EM-62" value="&lt;font style=&quot;font-size: 8px;&quot;&gt;YES&lt;/font&gt;" style="text;html=1;align=center;verticalAlign=middle;resizable=0;points=[];autosize=1;strokeColor=none;fillColor=none;" parent="1" vertex="1">
          <mxGeometry x="569.87" y="-810" width="40" height="30" as="geometry" />
        </mxCell>
        <mxCell id="FQrFjegRPgmL6ipm70EM-63" value="&lt;font style=&quot;font-size: 8px;&quot;&gt;NO&lt;/font&gt;" style="text;html=1;align=center;verticalAlign=middle;resizable=0;points=[];autosize=1;strokeColor=none;fillColor=none;" parent="1" vertex="1">
          <mxGeometry x="519.87" y="-770" width="40" height="30" as="geometry" />
        </mxCell>
        <mxCell id="FQrFjegRPgmL6ipm70EM-64" value="YES" style="text;html=1;align=center;verticalAlign=middle;resizable=0;points=[];autosize=1;strokeColor=none;fillColor=none;" parent="1" vertex="1">
          <mxGeometry x="269.87" y="-517.5" width="50" height="30" as="geometry" />
        </mxCell>
        <mxCell id="FQrFjegRPgmL6ipm70EM-65" value="&lt;font style=&quot;font-size: 8px;&quot;&gt;组成超级帧并重置参数状态&lt;/font&gt;" style="whiteSpace=wrap;html=1;rounded=0;" parent="1" vertex="1">
          <mxGeometry x="469.87" y="-517.5" width="100" height="45" as="geometry" />
        </mxCell>
      </root>
    </mxGraphModel>
  </diagram>
</mxfile>
